<svg xmlns="http://www.w3.org/2000/svg" width="10" height="8" viewBox="0 0 10 8">
  <defs>
    <style>
      .cls-1 {
        fill: #1c93e1;
        fill-rule: evenodd;
      }
    </style>
  </defs>
  <path id="Tvar_2_kopie_9_copy_14" data-name="Tvar 2 kopie 9 copy 14" class="cls-1" d="M600.971,1120l0.03-.03-4.059-3.73a0.952,0.952,0,0,0-1.264,0l-0.027.02a0.768,0.768,0,0,0-.262.57,0.789,0.789,0,0,0,.262.58l1.883,1.76h-5.641a0.861,0.861,0,0,0-.895.81v0.04a0.854,0.854,0,0,0,.895.81h5.641l-1.883,1.76a0.789,0.789,0,0,0-.262.58,0.768,0.768,0,0,0,.262.57l0.027,0.03a0.983,0.983,0,0,0,1.264,0l4.059-3.74Z" transform="translate(-591 -1116)"/>
</svg>
