<svg xmlns="http://www.w3.org/2000/svg" width="14" height="14" viewBox="0 0 14 14">
  <defs>
    <style>
      .cls-1 {
        fill: #fff;
        fill-rule: evenodd;
      }
    </style>
  </defs>
  <path id="Rounded_Rectangle_1_copy_4" data-name="Rounded Rectangle 1 copy 4" class="cls-1" d="M1238,3692.63l0.03,0.04,4.36-4.74a1.1,1.1,0,0,0,0-1.47l-0.03-.03a0.885,0.885,0,0,0-.67-0.31,0.9,0.9,0,0,0-.67.31l-2.05,2.19v-6.58a1,1,0,0,0-.95-1.04h-0.04a1,1,0,0,0-.95,1.04v6.58l-2.06-2.19a0.868,0.868,0,0,0-1.33,0l-0.03.03a1.1,1.1,0,0,0-.28.74,1.073,1.073,0,0,0,.28.73l4.36,4.74Zm-6.22.81h12.44a0.781,0.781,0,0,1,.78.78h0a0.781,0.781,0,0,1-.78.78h-12.44a0.781,0.781,0,0,1-.78-0.78h0A0.781,0.781,0,0,1,1231.78,3693.44Z" transform="translate(-1231 -3681)"/>
</svg>
