<svg xmlns="http://www.w3.org/2000/svg" width="14" height="14.25" viewBox="0 0 14 14.25">
  <defs>
    <style>
      .cls-1 {
        fill: #afcb08;
        fill-rule: evenodd;
      }
    </style>
  </defs>
  <path id="Rounded_Rectangle_1" data-name="Rounded Rectangle 1" class="cls-1" d="M720,1250.84l0.032,0.04,4.359-4.82a1.132,1.132,0,0,0,.278-0.75,1.113,1.113,0,0,0-.278-0.75l-0.028-.04a0.877,0.877,0,0,0-1.338,0l-2.059,2.24v-6.7a1.006,1.006,0,0,0-.947-1.06h-0.041a1.006,1.006,0,0,0-.946,1.06v6.7l-2.058-2.24a0.877,0.877,0,0,0-1.338,0l-0.029.04a1.107,1.107,0,0,0-.277.75,1.126,1.126,0,0,0,.277.75l4.36,4.82Zm-6.208.82h12.416a0.788,0.788,0,0,1,.792.79v0.01a0.788,0.788,0,0,1-.792.79H713.792a0.788,0.788,0,0,1-.792-0.79v-0.01A0.788,0.788,0,0,1,713.792,1251.66Z" transform="translate(-713 -1239)"/>
</svg>
