<svg xmlns="http://www.w3.org/2000/svg" width="53.03" height="51.87" viewBox="0 0 53.03 51.87">
  <defs>
    <style>
      .cls-1 {
        fill: #26a6fa;
        fill-rule: evenodd;
      }
    </style>
  </defs>
  <path class="cls-1" d="M1422.68,1911.3h-7.49v2.33h7.49v22.12h-48.32v-22.12h5.97v-2.33h-5.97a2.352,2.352,0,0,0-2.36,2.33v28.89a2.352,2.352,0,0,0,2.36,2.33h10.31v5.65h-3.24v2.33h33.86v-2.33h-3.52v-5.65h10.91a2.343,2.343,0,0,0,2.35-2.33v-28.89A2.343,2.343,0,0,0,1422.68,1911.3Zm-13.26,39.2h-22.39v-5.65h22.39v5.65Zm-35.06-7.98v-4.44h48.32v4.44h-48.32Zm26.32-19.36,6.87,5.4a1.38,1.38,0,0,0,.84.29,1.348,1.348,0,0,0,1.36-1.34v-4.35h2.6l1.22-.04v-20.97l-0.04-1.2h-30.02a1.438,1.438,0,0,0-1.45,1.42v19.58l0.04,1.21h18.58Zm-16.26-19.88h26.79v17.54h-3.81v4.64l-5.9-4.64h-17.08v-17.54Zm23.88,2.54h-20.51v2.33h20.51v-2.33Zm0,4.45h-20.51v2.33h20.51v-2.33Zm-20.51,6.78h11.08v-2.33h-11.08v2.33Z" transform="translate(-1372 -1900.94)"/>
</svg>
