<svg xmlns="http://www.w3.org/2000/svg" width="56.406" height="57.72" viewBox="0 0 56.406 57.72">
  <defs>
    <style>
      .cls-1 {
        fill: #26a6fa;
        fill-rule: evenodd;
      }
    </style>
  </defs>
  <path class="cls-1" d="M533.112,1902.44a28.134,28.134,0,1,0-39.874,39.7l1.847-1.84a25.583,25.583,0,1,1,36.18,0l1.847,1.84A27.984,27.984,0,0,0,533.112,1902.44Zm-8.761,19.03a11.176,11.176,0,1,0-11.176,11.13A11.161,11.161,0,0,0,524.351,1921.47ZM513.175,1930a8.525,8.525,0,1,1,8.564-8.53A8.553,8.553,0,0,1,513.175,1930Zm19.151-8.54a19.151,19.151,0,0,0-38.3,0c-0.1,13.33,16.224,28.39,18.087,30.07a1.584,1.584,0,0,0,2.127,0C516.1,1949.85,532.428,1934.79,532.326,1921.46Zm-19.151,27.51c-3.5-3.28-16.624-16.29-16.538-27.48a16.539,16.539,0,0,1,33.077,0C529.8,1932.68,516.682,1945.69,513.175,1948.97Z" transform="translate(-484.969 -1894.22)"/>
</svg>
