<svg xmlns="http://www.w3.org/2000/svg" width="21" height="25" viewBox="0 0 21 25">
  <defs>
    <style>
      .cls-1 {
        fill: #2aa9fd;
        fill-rule: evenodd;
      }
    </style>
  </defs>
  <path id="Shape_359_copy_4" data-name="Shape 359 copy 4" class="cls-1" d="M328,4547.1l-0.129-.12a10.606,10.606,0,0,0-14.742,0l-0.137.13a10.479,10.479,0,0,0,.008,14.67l7.083,7.05a0.59,0.59,0,0,0,.834,0l7.092-7.06A10.48,10.48,0,0,0,328,4547.1Zm-1.67,1.43,0.115,0.11a8.287,8.287,0,0,1,.008,11.6l-5.536,5.5a0.59,0.59,0,0,1-.834,0l-5.528-5.49a8.287,8.287,0,0,1-.008-11.6l0.12-.12A8.41,8.41,0,0,1,326.33,4548.53Zm-0.86,4.51-0.714-.71a0.591,0.591,0,0,0-.835,0l-3.59,3.57a0.59,0.59,0,0,1-.834,0l-1.921-1.91a0.59,0.59,0,0,0-.834,0l-0.715.71a0.585,0.585,0,0,0,0,.83l3.47,3.46a0.609,0.609,0,0,0,.834,0l5.139-5.12A0.584,0.584,0,0,0,325.47,4553.04Z" transform="translate(-310 -4544)"/>
</svg>
