<svg xmlns="http://www.w3.org/2000/svg" width="43" height="43.97" viewBox="0 0 43 43.97">
  <defs>
    <style>
      .cls-1 {
        fill: #30acfe;
        fill-rule: evenodd;
      }
    </style>
  </defs>
  <path class="cls-1" d="M814.585,2416.34l-9.2,9.19-4.24-4.23-1.445,1.44,5.685,5.68,10.648-10.64Zm-9.484,14.75a6.31,6.31,0,1,1,3.061-11.83l0.992-1.79a8.352,8.352,0,1,0,4.31,7.31H811.42A6.321,6.321,0,0,1,805.1,2431.09Zm21.9-2.84,0.006-6.76-4.539-1.24a17.625,17.625,0,0,0-1.686-4.07l2.7-4.4-4.815-4.82-4.458,2.65a17.26,17.26,0,0,0-4.069-1.68l-1.244-4.91h-6.8l-1.241,4.91a17.393,17.393,0,0,0-4.027,1.66l-4.3-2.55-4.817,4.79,2.538,4.3a17.474,17.474,0,0,0-1.708,4.1l-4.54,1.43-0.013,6.76,4.547,1.07a17.624,17.624,0,0,0,1.665,4.03l-2.724,4.18,4.8,4.81,4.469-2.41a17.394,17.394,0,0,0,4.084,1.7l1.262,5.2,6.825,0.01,1.22-5.19a17.275,17.275,0,0,0,4.062-1.69l4.475,2.62,4.822-4.8-2.72-4.38a17.428,17.428,0,0,0,1.69-4.06Zm-6.1,9.4-2.557,2.54-4.164-2.43-0.523.32a15.534,15.534,0,0,1-4.608,1.9l-0.617.15-1.136,4.83h-3.6l-1.176-4.84-0.61-.15a15.239,15.239,0,0,1-4.6-1.91l-0.5-.31-4.16,2.24-2.555-2.56,2.52-3.87-0.34-.55a15.368,15.368,0,0,1-1.9-4.61l-0.144-.62-4.19-.97,0.008-3.65,4.208-1.32,0.135-.57a15.348,15.348,0,0,1,1.92-4.59l0.326-.53-2.355-3.99,2.57-2.56,3.993,2.37,0.526-.32a15.293,15.293,0,0,1,4.568-1.89l0.605-.14,1.152-4.56h3.62l1.155,4.56,0.605,0.14a15.255,15.255,0,0,1,4.606,1.91L814.2,2412l4.147-2.47,2.552,2.55-2.513,4.1,0.333,0.53a15.483,15.483,0,0,1,1.908,4.6l0.139,0.6,4.194,1.14,0,3.65-4.2,1.16-0.14.59a15.333,15.333,0,0,1-1.914,4.59l-0.335.54Z" transform="translate(-784 -2403.03)"/>
</svg>
