<svg xmlns="http://www.w3.org/2000/svg" width="38.969" height="37" viewBox="0 0 38.969 37">
  <defs>
    <style>
      .cls-1 {
        fill: #30acfe;
        fill-rule: evenodd;
      }
    </style>
  </defs>
  <path class="cls-1" d="M374.179,2443.99H355.734a1.1,1.1,0,0,1-1.086-1.11v-32.01a1.094,1.094,0,0,1,1.086-1.11h0.74a3.568,3.568,0,0,1,6.946,0h0.894a3.566,3.566,0,0,1,6.9-.16,3.567,3.567,0,0,1,6.9.16H380.9a1.094,1.094,0,0,1,1.085,1.11V2436Zm-17.727-1.85H372.9v-6.29a1.146,1.146,0,0,1,1.13-1.16h6.151V2411.6h-2.067a3.611,3.611,0,0,1-3.472,2.75v-1.85a1.771,1.771,0,0,0,1.536-.9h-4.923a3.61,3.61,0,0,1-3.472,2.75v-1.85a1.774,1.774,0,0,0,1.537-.9h-5.9a3.611,3.611,0,0,1-3.473,2.75v-1.85a1.774,1.774,0,0,0,1.538-.9h-5.033v30.54Zm18.256-5.6v4.3l4.2-4.3h-4.2Zm-1.6-26.78h3.073A1.762,1.762,0,0,0,373.108,2409.76Zm-6.86,0h3.075A1.763,1.763,0,0,0,366.248,2409.76Zm-7.838,0h3.075A1.763,1.763,0,0,0,358.41,2409.76Zm-4.283,34.23h-2.272a1.142,1.142,0,0,1-1.126-1.15v-31.93a1.136,1.136,0,0,1,1.126-1.15h2.272v1.84h-1.593v30.54h1.593v1.85Zm-6.839,0h-3.145a1.142,1.142,0,0,1-1.126-1.15v-31.83l1.8-2.86a1.069,1.069,0,0,1,.934-0.55h0a1.076,1.076,0,0,1,.937.56l1.727,2.86v31.82A1.142,1.142,0,0,1,347.288,2443.99Zm-2.467-1.85h1.789v-1.7h-1.789v1.7Zm0-3.54h1.789v-25.73h-1.789v25.73Zm0.332-27.57H346.3l-0.561-.93Zm22.633,23.67a7.827,7.827,0,0,1,0-15.65v1.84a5.982,5.982,0,1,0,5.846,5.98h1.8A7.749,7.749,0,0,1,367.786,2434.7Z" transform="translate(-343.031 -2407)"/>
</svg>
