<svg xmlns="http://www.w3.org/2000/svg" width="42" height="42" viewBox="0 0 42 42">
  <defs>
    <style>
      .cls-1 {
        fill: #30acfe;
        fill-rule: evenodd;
      }
    </style>
  </defs>
  <path class="cls-1" d="M1251.95,2431.48a3.448,3.448,0,1,0,2.45,1.01A3.481,3.481,0,0,0,1251.95,2431.48Zm1.17,4.64a1.649,1.649,0,0,1-1.17.48,1.655,1.655,0,1,1,0-3.31A1.655,1.655,0,0,1,1253.12,2436.12Zm-11.12-.52a3.465,3.465,0,1,0,3.47,3.46A3.47,3.47,0,0,0,1242,2435.6Zm0,5.12a1.66,1.66,0,1,1,1.66-1.66A1.662,1.662,0,0,1,1242,2440.72Zm-9.95-9.24a3.449,3.449,0,1,0,2.46,1.01A3.475,3.475,0,0,0,1232.05,2431.48Zm1.18,4.64a1.672,1.672,0,0,1-1.18.48,1.655,1.655,0,1,1,0-3.31,1.672,1.672,0,0,1,1.18.48,1.649,1.649,0,0,1,.48,1.17A1.672,1.672,0,0,1,1233.23,2436.12Zm-1.18-17.6a3.449,3.449,0,1,0-2.45-1.01A3.481,3.481,0,0,0,1232.05,2418.52Zm-1.17-4.64a1.659,1.659,0,0,1,1.17-.49,1.66,1.66,0,1,1,0,3.32A1.655,1.655,0,0,1,1230.88,2413.88Zm0.52,11.12a3.465,3.465,0,1,0-3.47,3.47A3.472,3.472,0,0,0,1231.4,2425Zm-3.47,1.66a1.66,1.66,0,1,1,1.66-1.66A1.66,1.66,0,0,1,1227.93,2426.66Zm14.07-10.8a9.135,9.135,0,1,0,9.13,9.14A9.142,9.142,0,0,0,1242,2415.86Zm0,16.47a7.33,7.33,0,1,1,7.33-7.33A7.341,7.341,0,0,1,1242,2432.33Zm0-28.34a21.005,21.005,0,1,0,21.01,21.01A21.04,21.04,0,0,0,1242,2403.99Zm0,40.21a19.2,19.2,0,1,1,19.2-19.2A19.224,19.224,0,0,1,1242,2444.2Zm0-29.8a3.465,3.465,0,1,0-3.47-3.47A3.472,3.472,0,0,0,1242,2414.4Zm0-5.12a1.655,1.655,0,1,1-1.66,1.65A1.66,1.66,0,0,1,1242,2409.28Zm9.95,9.24a3.465,3.465,0,1,0-2.46-1.01A3.475,3.475,0,0,0,1251.95,2418.52Zm-1.18-4.64a1.682,1.682,0,0,1,1.18-.49A1.665,1.665,0,1,1,1250.77,2413.88Zm5.29,7.65a3.47,3.47,0,1,0,3.47,3.47A3.47,3.47,0,0,0,1256.06,2421.53Zm0,5.13a1.66,1.66,0,1,1,1.66-1.66A1.669,1.669,0,0,1,1256.06,2426.66Z" transform="translate(-1221 -2404)"/>
</svg>
