<svg xmlns="http://www.w3.org/2000/svg" width="40" height="39" viewBox="0 0 40 39">
  <defs>
    <style>
      .cls-1 {
        fill: #30acfe;
        fill-rule: evenodd;
      }
    </style>
  </defs>
  <path class="cls-1" d="M1260.22,2287.78h-5.64v1.76l5.64-.01v16.63h-36.44v-16.62h4.5v-1.76h-4.5a1.771,1.771,0,0,0-1.78,1.75v21.72a1.773,1.773,0,0,0,1.78,1.76h7.78v4.24h-2.45v1.76h25.54v-1.76H1252v-4.24h8.22a1.773,1.773,0,0,0,1.78-1.76v-21.72A1.771,1.771,0,0,0,1260.22,2287.78Zm-10,29.47h-16.89v-4.24h16.89v4.24Zm-26.44-6v-3.33h36.44v3.33h-36.44Zm19.85-14.55,5.18,4.06a1.077,1.077,0,0,0,.64.22,1.22,1.22,0,0,0,.45-0.1,1.007,1.007,0,0,0,.57-0.91v-3.27h1.96l0.92-.03V2280.9l-0.03-.9h-22.64a1.082,1.082,0,0,0-1.09,1.07v14.72l0.03,0.91h14.01Zm-12.26-14.95h20.2v13.19h-2.87v3.48l-4.45-3.48h-12.88v-13.19Zm18.01,1.91h-15.47v1.75h15.47v-1.75Zm0,3.34h-15.47v1.76h15.47V2287Zm-15.47,5.1h8.36v-1.75h-8.36v1.75Z" transform="translate(-1222 -2280)"/>
</svg>
