<svg xmlns="http://www.w3.org/2000/svg" width="35.969" height="40" viewBox="0 0 35.969 40">
  <defs>
    <style>
      .cls-1 {
        fill: #30acfe;
        fill-rule: evenodd;
      }
    </style>
  </defs>
  <path class="cls-1" d="M795.076,2280.01h-6.953a1.106,1.106,0,0,0-1.117,1.09v37.81a1.106,1.106,0,0,0,1.117,1.09h6.953a1.106,1.106,0,0,0,1.117-1.09V2281.1A1.106,1.106,0,0,0,795.076,2280.01Zm-6.193,34.15v-1.97h2.06v-1.84h-2.06v-1.97h2.06v-1.84h-2.06v-1.97h2.06v-1.85h-2.06v-1.97h2.06v-1.84h-2.06v-1.97h2.06v-1.84h-2.06v-1.97h2.06v-1.84h-2.06v-1.97h2.06v-1.85h-2.06v-1.97h2.06v-1.84h-2.06v-1.81h5.433v36.31h-5.433v-2.15h2.06v-1.85h-2.06Zm10.988-3.28a8.777,8.777,0,0,0,1.308-.53l3.186,2.34,2.817-2.76-2.379-3.13a8.086,8.086,0,0,0,.543-1.28l3.938-.56,0-3.9-3.937-.56a8.1,8.1,0,0,0-.542-1.29l2.383-3.13-2.813-2.76-3.189,2.34a8.722,8.722,0,0,0-1.307-.53l-0.569-3.87h-1.991v1.84h0.365l0.516,3.51,0.623,0.14a6.514,6.514,0,0,1,1.939.79l0.543,0.33,2.891-2.12,0.515,0.51-2.16,2.83,0.337,0.54a6.281,6.281,0,0,1,.8,1.9l0.146,0.61,3.568,0.51v0.72l-3.569.5-0.147.61a6.288,6.288,0,0,1-.806,1.9l-0.337.54,2.155,2.83-0.515.51-2.888-2.12-0.544.33a6.5,6.5,0,0,1-1.94.78l-0.623.15-0.52,3.5h-0.349l-0.006,1.84H799.3Zm1.749-7.88a4.269,4.269,0,0,0-4.3-4.22v1.85a2.375,2.375,0,1,1,0,4.75v1.84A4.262,4.262,0,0,0,801.62,2303Zm17.237-22.57h-4.123v33.39l1.092-.18c0.888-.14,3.447-0.3,4.631.69a1.831,1.831,0,0,1,.631,1.36,2.637,2.637,0,0,1-2.645,2.47H797.322V2320h21.122a4.489,4.489,0,0,0,4.5-4.08h0.037v-31.45A4.086,4.086,0,0,0,818.857,2280.43Zm-2.246,1.84h2.246a2.228,2.228,0,0,1,2.247,2.2v28.06a7.632,7.632,0,0,0-3.765-.84c-0.262,0-.507.01-0.728,0.02v-29.44Zm-3.8,2.8H797.322v1.84h15.491v-1.84Z" transform="translate(-787 -2280)"/>
</svg>
